<svg width="303" height="136" viewBox="0 0 303 136" fill="none" xmlns="http://www.w3.org/2000/svg">
<path d="M21.468 20.277L101.041 69.8702C107.517 73.9029 107.409 81.5799 100.825 85.5051L21.2529 132.971C12.8231 138.002 0.629425 133.336 0.629425 125.085V28.0257C0.629425 19.6796 13.08 15.0494 21.468 20.277Z" fill="#424242"/>
<path d="M84.6648 95.1477L43.0713 41.6055L0.629425 74.572V125.085C0.629425 133.336 12.8291 137.996 21.2529 132.971L84.6648 95.1477Z" fill="#383838"/>
<path d="M45.2041 9.48132H42.5754V11.3573H45.2041V9.48132Z" fill="#FFCE00"/>
<path d="M56.8362 9.48132H46.7037V11.3573H56.8362V9.48132Z" fill="#FFCE00"/>
<path d="M56.8362 8.35813V4.70779C56.8302 4.70779 56.8302 4.70779 56.8243 4.70779C56.8183 4.70779 56.8183 4.70779 56.8123 4.70779H46.7037V8.35813H56.8362Z" fill="#FFCE00"/>
<path d="M45.2041 12.4864H42.5754V14.3624H45.2041V12.4864Z" fill="#FFCE00"/>
<path d="M29.868 9.48129C29.9396 9.29011 30.0173 9.09893 30.101 8.91373C30.0173 9.09893 29.9396 9.29011 29.868 9.48129Z" fill="#FFCE00"/>
<path d="M54.3987 107.24H56.2746V92.513C55.6414 92.495 55.014 92.4532 54.3987 92.3815V107.24Z" fill="#FFCE00"/>
<path d="M30.101 14.9299C30.0173 14.7447 29.9396 14.5535 29.868 14.3624C29.9396 14.5595 30.0173 14.7447 30.101 14.9299Z" fill="#FFCE00"/>
<path d="M30.3817 15.4855C30.2802 15.3123 30.1905 15.1331 30.1069 14.9538C30.1965 15.139 30.2861 15.3123 30.3817 15.4855Z" fill="#FFCE00"/>
<path d="M30.1129 8.88984C30.1965 8.71061 30.2862 8.53138 30.3877 8.35812C30.2862 8.53138 30.1965 8.71061 30.1129 8.88984Z" fill="#FFCE00"/>
<path d="M54.3987 19.1419V52.2936C55.014 52.2219 55.6413 52.1801 56.2746 52.1622V19.1419V12.4864H46.7037V14.3624H54.4047V19.1419H54.3987Z" fill="#FFCE00"/>
<path d="M45.2041 15.4915H42.5754V19.1419H45.2041V15.4915Z" fill="#FFCE00"/>
<path d="M48.8784 108.739C48.4661 108.739 48.1256 108.405 48.1256 107.987C48.1256 107.574 48.4601 107.234 48.8784 107.234H53.2755V92.2143C43.8001 90.5594 36.5711 82.2729 36.5711 72.3316C36.5711 62.3902 43.8001 54.1098 53.2755 52.4489V19.1419V15.4915H46.7037V19.1419H49.5953V36.1449C49.5953 37.2023 48.9978 38.1702 48.0419 38.6123C33.2434 45.5127 22.3343 68.4064 22.3343 84.4237C22.3343 100.106 32.8013 113.34 47.1338 117.534L56.8422 111.738V108.733H48.8784V108.739ZM39.1222 103.864C35.5973 103.864 32.7416 101.009 32.7416 97.4836C32.7416 93.9588 35.5973 91.103 39.1222 91.103C42.6471 91.103 45.5028 93.9588 45.5028 97.4836C45.5028 101.003 42.6471 103.864 39.1222 103.864Z" fill="#FFCE00"/>
<path d="M36.9416 4.70779H36.6548C33.9663 4.70779 31.6244 6.17749 30.3817 8.35813H36.9416V4.70779Z" fill="#FFCE00"/>
<path d="M41.0759 15.4915H38.4471V19.1419H41.0759V15.4915Z" fill="#FFCE00"/>
<path d="M36.9416 9.48132H29.868C29.6529 10.0728 29.5155 10.7061 29.4617 11.3573H36.9416V9.48132Z" fill="#FFCE00"/>
<path d="M30.3817 15.4915C31.6244 17.6722 33.9663 19.1419 36.6548 19.1419H36.9416V15.4915H30.3817Z" fill="#FFCE00"/>
<path d="M36.9416 12.4864H29.4617C29.5095 13.1436 29.6529 13.7709 29.868 14.3624H36.9416V12.4864Z" fill="#FFCE00"/>
<path d="M45.2041 4.70779H42.5754V8.35813H45.2041V4.70779Z" fill="#FFCE00"/>
<path d="M41.0759 9.48132H38.4471V11.3573H41.0759V9.48132Z" fill="#FFCE00"/>
<path d="M41.0759 4.70779H38.4471V8.35813H41.0759V4.70779Z" fill="#FFCE00"/>
<path d="M41.0759 12.4864H38.4471V14.3624H41.0759V12.4864Z" fill="#FFCE00"/>
<path d="M56.8362 111.744L61.8726 108.739H56.8362V111.744Z" fill="#F9B835"/>
<path d="M65.6364 38.6183C64.6805 38.1702 64.0831 37.2023 64.0831 36.1509V11.9547C64.0831 7.95786 60.839 4.71378 56.8422 4.71378V8.36411H60.4089V18.18V52.4848C69.8065 54.2054 76.9519 62.45 76.9519 72.3376C76.9519 82.2251 69.8065 90.4698 60.4089 92.1904V107.24H64.3938L71.1866 103.189C69.0896 102.144 67.6498 99.9869 67.6498 97.4837C67.6498 93.9588 70.5055 91.103 74.0304 91.103C77.5553 91.103 80.411 93.9588 80.411 97.4837C80.411 97.5553 80.4051 97.6211 80.3991 97.6928L90.5914 91.6109C91.0813 89.2928 91.3441 86.8911 91.3441 84.4237C91.3441 68.4064 80.429 45.5127 65.6364 38.6183Z" fill="#F9B835"/>
<path d="M57.4038 92.513V107.24H59.2797V92.3636C58.6644 92.4413 58.037 92.4891 57.4038 92.513Z" fill="#F9B835"/>
<path d="M57.4038 11.3632V19.112V52.1681C58.037 52.1861 58.6644 52.2398 59.2797 52.3115V18.6998V9.48132H56.8362V11.3573H57.4038V11.3632Z" fill="#F9B835"/>
<path d="M39.0326 72.3376C39.0326 63.7404 45.1504 56.5712 53.2755 54.9522V53.0583C44.1287 54.7072 37.1686 62.7188 37.1686 72.3316C37.1686 81.9443 44.1287 89.9559 53.2755 91.6049V89.711C45.1563 88.1039 39.0326 80.9347 39.0326 72.3376Z" fill="white"/>
<path d="M54.3987 91.7841C55.014 91.8558 55.6414 91.9036 56.2746 91.9215V90.0575C55.6414 90.0396 55.014 89.9918 54.3987 89.9081V91.7841Z" fill="white"/>
<path d="M56.2746 52.7596C55.6414 52.7775 55.014 52.8193 54.3987 52.897V54.7729C55.014 54.6893 55.6414 54.6415 56.2746 54.6236V52.7596Z" fill="white"/>
<path d="M54.3987 92.3816C55.014 92.4532 55.6414 92.4951 56.2746 92.513V91.9156C55.6414 91.8976 55.014 91.8558 54.3987 91.7781V92.3816Z" fill="#FFB600"/>
<path d="M56.2746 52.1621C55.6414 52.1801 55.014 52.2219 54.3987 52.2936V52.897C55.014 52.8253 55.6414 52.7775 56.2746 52.7596V52.1621Z" fill="#FFB600"/>
<path d="M53.2755 91.6109C44.1287 89.9619 37.1686 81.9503 37.1686 72.3376C37.1686 62.7248 44.1287 54.7132 53.2755 53.0643V52.4549C43.8002 54.1098 36.5712 62.3962 36.5712 72.3376C36.5712 82.2789 43.8002 90.5594 53.2755 92.2202V91.6109Z" fill="#FFB600"/>
<path d="M74.0244 91.103C70.4996 91.103 67.6438 93.9588 67.6438 97.4836C67.6438 99.9869 69.0836 102.144 71.1806 103.189L80.3931 97.6927C80.3931 97.6211 80.4051 97.5553 80.4051 97.4836C80.4051 93.9588 77.5493 91.103 74.0244 91.103Z" fill="#7A5537"/>
<path d="M57.4038 54.6236C58.037 54.6475 58.6644 54.7013 59.2797 54.7909V52.9149C58.6644 52.8373 58.037 52.7835 57.4038 52.7656V54.6236Z" fill="#EAEAEA"/>
<path d="M68.7192 59.2477C68.9223 59.4329 69.1255 59.6241 69.3226 59.8213C69.3286 59.8273 69.3346 59.8332 69.3406 59.8392C69.5317 60.0304 69.7229 60.2335 69.9081 60.4366C69.9201 60.4486 69.932 60.4665 69.944 60.4785C70.1232 60.6756 70.2965 60.8728 70.4637 61.0819C70.4817 61.1058 70.4996 61.1297 70.5235 61.1595C70.6848 61.3567 70.8401 61.5538 70.9895 61.751C71.0134 61.7809 71.0313 61.8107 71.0552 61.8406C71.1986 62.0378 71.3479 62.2409 71.4853 62.444C71.5152 62.4918 71.5451 62.5396 71.575 62.5814C71.7004 62.7726 71.8259 62.9638 71.9454 63.1609C71.9752 63.2147 72.0051 63.2685 72.035 63.3223C72.1485 63.5134 72.262 63.7046 72.3696 63.9018C72.4054 63.9675 72.4412 64.0392 72.4771 64.1049C72.5727 64.2901 72.6742 64.4753 72.7639 64.6605C72.7997 64.7382 72.8355 64.8218 72.8714 64.8995C72.955 65.0787 73.0387 65.2579 73.1164 65.4431C73.1522 65.5328 73.188 65.6284 73.2239 65.718C73.2956 65.8912 73.3673 66.0645 73.433 66.2437C73.4748 66.3513 73.5047 66.4648 73.5465 66.5723C73.6003 66.7396 73.66 66.9009 73.7138 67.0682C73.7496 67.1877 73.7855 67.3131 73.8153 67.4326C73.8631 67.5879 73.9109 67.7493 73.9468 67.9046C73.9826 68.036 74.0065 68.1734 74.0424 68.3049C74.0782 68.4542 74.1141 68.6036 74.1439 68.7589C74.1738 68.9083 74.1977 69.0576 74.2216 69.213C74.2455 69.3504 74.2754 69.4938 74.2993 69.6312C74.3232 69.7985 74.3411 69.9717 74.365 70.145C74.3829 70.2704 74.4008 70.3899 74.4128 70.5154C74.4367 70.7544 74.4546 70.9933 74.4665 71.2323C74.4725 71.292 74.4785 71.3518 74.4785 71.4115C74.4964 71.7162 74.5024 72.0149 74.5024 72.3256C74.5024 72.6363 74.4964 72.935 74.4785 73.2397C74.4725 73.2994 74.4665 73.3592 74.4665 73.4189C74.4546 73.6579 74.4367 73.9028 74.4128 74.1358C74.4008 74.2613 74.3829 74.3808 74.365 74.5063C74.3411 74.6795 74.3232 74.8528 74.2993 75.02C74.2754 75.1634 74.2515 75.3008 74.2216 75.4383C74.1977 75.5876 74.1738 75.7429 74.1439 75.8923C74.1141 76.0476 74.0722 76.197 74.0424 76.3464C74.0125 76.4778 73.9826 76.6152 73.9468 76.7466C73.9049 76.908 73.8572 77.0633 73.8153 77.2186C73.7795 77.3381 73.7496 77.4636 73.7138 77.5831C73.66 77.7444 73.6062 77.9057 73.5525 78.067C73.5166 78.1805 73.4808 78.294 73.439 78.4015C73.3732 78.5748 73.3075 78.7421 73.2358 78.9153C73.194 79.0109 73.1641 79.1125 73.1223 79.2081C73.0446 79.3873 72.967 79.5606 72.8833 79.7338C72.8415 79.8175 72.8057 79.9071 72.7698 79.9907C72.6802 80.1759 72.5846 80.3611 72.489 80.5463C72.4532 80.618 72.4173 80.6837 72.3815 80.7554C72.2739 80.9466 72.1664 81.1378 72.0529 81.329C72.0171 81.3827 71.9872 81.4425 71.9573 81.4963C71.8378 81.6934 71.7124 81.8846 71.5869 82.0698C71.557 82.1176 71.5272 82.1654 71.4973 82.2132C71.3599 82.4163 71.2165 82.6194 71.0672 82.8166C71.0433 82.8465 71.0253 82.8763 71.0014 82.9062C70.852 83.1034 70.6967 83.3005 70.5414 83.4917C70.5175 83.5216 70.4996 83.5514 70.4757 83.5753C70.3084 83.7785 70.1411 83.9696 69.9679 84.1668C69.9499 84.1847 69.938 84.2026 69.92 84.2206C69.7348 84.4237 69.5496 84.6209 69.3585 84.812C69.3525 84.818 69.3465 84.824 69.3406 84.83C69.1434 85.0271 68.9462 85.2183 68.7371 85.4035C68.7312 85.4095 68.7312 85.4095 68.7252 85.4154C66.431 87.5124 63.5813 89.012 60.4208 89.6692V91.5631C69.4899 89.8484 76.3664 81.8726 76.3664 72.3137C76.3664 62.7547 69.4839 54.7789 60.4208 53.0643V54.9582C63.5813 55.6153 66.425 57.1149 68.7252 59.2119C68.7132 59.2418 68.7132 59.2477 68.7192 59.2477Z" fill="#EAEAEA"/>
<path d="M57.4038 91.9156C58.037 91.8976 58.6644 91.8439 59.2797 91.7662V89.8903C58.6644 89.9799 58.037 90.0336 57.4038 90.0575V91.9156Z" fill="#EAEAEA"/>
<path d="M57.4038 52.7596C58.037 52.7775 58.6644 52.8313 59.2797 52.9089V52.3055C58.6644 52.2279 58.037 52.1801 57.4038 52.1621V52.7596Z" fill="#FF9700"/>
<path d="M60.4029 53.0882C69.472 54.8028 76.3485 62.7786 76.3485 72.3375C76.3485 81.8965 69.466 89.8723 60.4029 91.5869V92.1963C69.8006 90.4757 76.9459 82.2311 76.9459 72.3435C76.9459 62.456 69.8006 54.2113 60.4029 52.4907V53.0882Z" fill="#FF9700"/>
<path d="M57.4038 92.513C58.037 92.495 58.6644 92.4413 59.2797 92.3696V91.7662C58.6644 91.8438 58.037 91.8976 57.4038 91.9155V92.513Z" fill="#FF9700"/>
<path d="M45.0291 99.9182C46.3777 96.6625 44.8316 92.9299 41.5759 91.5813C38.3201 90.2327 34.5876 91.7788 33.239 95.0345C31.8904 98.2903 33.4364 102.023 36.6922 103.371C39.9479 104.72 43.6805 103.174 45.0291 99.9182Z" fill="#916B49"/>
<path d="M56.2746 107.24H54.3987V107.993H53.2755V107.24H48.8784C48.4661 107.24 48.1256 107.574 48.1256 107.993C48.1256 108.405 48.4602 108.745 48.8784 108.745H56.8362V107.993H56.2746V107.24Z" fill="white"/>
<path d="M45.2041 11.3632H42.5754V12.4864H45.2041V11.3632Z" fill="white"/>
<path d="M56.2746 19.1418V52.1621V52.7596V54.6236C56.4359 54.6176 56.5972 54.6116 56.7585 54.6116C56.7824 54.6116 56.8063 54.6116 56.8362 54.6116V19.1418V11.3632H46.7037V12.4864H56.2806V19.1418H56.2746Z" fill="white"/>
<path d="M36.9416 11.3632H29.4617C29.4498 11.5484 29.4318 11.7336 29.4318 11.9248C29.4318 12.116 29.4438 12.3012 29.4617 12.4864H36.9416V11.3632Z" fill="white"/>
<path d="M41.0759 11.3632H38.4471V12.4864H41.0759V11.3632Z" fill="white"/>
<path d="M56.8362 90.0635C56.8123 90.0635 56.7884 90.0635 56.7585 90.0635C56.5972 90.0635 56.4359 90.0575 56.2746 90.0515V91.9155V92.513V107.24V107.993H56.8362V107.24V90.0635V90.0635Z" fill="white"/>
<path d="M36.9416 14.3624H29.868C29.9396 14.5535 30.0173 14.7447 30.101 14.9299C30.1069 14.9359 30.1069 14.9419 30.1129 14.9538C30.1965 15.1331 30.2862 15.3123 30.3877 15.4855H36.9476V14.3624H36.9416Z" fill="white"/>
<path d="M41.0759 14.3624H38.4471V15.4855H41.0759V14.3624Z" fill="white"/>
<path d="M45.2041 14.3624H42.5754V15.4855H45.2041V14.3624Z" fill="white"/>
<path d="M53.2755 53.0643V54.9582C53.6459 54.8865 54.0223 54.8267 54.3987 54.7729V52.897V52.2936V19.1419V14.3624H46.7037V15.4855H53.2755V19.1359V52.4489V53.0643Z" fill="white"/>
<path d="M54.3987 107.993V107.24V92.3815V91.7781V89.9022C54.0223 89.8544 53.6459 89.7946 53.2755 89.717V91.6109V92.2202V107.24V107.993H54.3987Z" fill="white"/>
<path d="M59.2797 9.48131V18.6938V52.3055V52.9089V54.7849C59.6561 54.8386 60.0325 54.9044 60.4029 54.982V53.0882V52.4788V18.174V8.35812H56.8362V9.48131H59.2797V9.48131Z" fill="#EAEAEA"/>
<path d="M60.4029 91.581V89.6871C60.0325 89.7648 59.6561 89.8305 59.2797 89.8843V91.7602V92.3636V107.24H60.4029V92.1904V91.581Z" fill="#EAEAEA"/>
<path d="M36.9416 9.48131V8.35812H30.3817C30.2802 8.53138 30.1905 8.71061 30.1069 8.88984C30.1069 8.89582 30.101 8.90179 30.101 8.90776V8.91374C30.0173 9.09894 29.9396 9.29013 29.868 9.48131H36.9416V9.48131Z" fill="white"/>
<path d="M41.0759 8.35812H38.4471V9.48131H41.0759V8.35812Z" fill="white"/>
<path d="M45.2041 8.35812H42.5754V9.48131H45.2041V8.35812Z" fill="white"/>
<path d="M56.8362 8.35812H46.7037V9.48131H56.8362V8.35812Z" fill="white"/>
<path d="M38.4471 14.3624V12.4864V11.3632V9.48727V8.36409V4.71376V2.79599C38.2261 2.92743 37.9692 3.00509 37.6943 3.00509C37.4195 3.00509 37.1626 2.92743 36.9416 2.79599V4.71376V8.36409V9.48727V11.3632V12.4864V14.3624V15.4855V19.1359V20.8386C37.1626 20.7071 37.4195 20.6295 37.6943 20.6295C37.9692 20.6295 38.2261 20.7071 38.4471 20.8386V19.1359V15.4855V14.3624Z" fill="#F9B835"/>
<path d="M38.4471 2.79003C38.8952 2.52715 39.1999 2.04921 39.1999 1.49957C39.1999 0.66913 38.5248 0 37.7003 0C36.8699 0 36.2008 0.675104 36.2008 1.49957C36.2008 2.05518 36.5055 2.53313 36.9535 2.79003C37.1746 2.92146 37.4315 2.99913 37.7063 2.99913C37.9811 2.99913 38.2201 2.91549 38.4471 2.79003Z" fill="#916B49"/>
<path d="M36.9416 20.8445C36.4935 21.1074 36.1888 21.5854 36.1888 22.135C36.1888 22.9654 36.8579 23.6346 37.6884 23.6346C38.5188 23.6346 39.1879 22.9595 39.1879 22.135C39.1879 21.5794 38.8832 21.1014 38.4352 20.8445C38.2141 20.7131 37.9572 20.6354 37.6824 20.6354C37.4076 20.6354 37.1626 20.7131 36.9416 20.8445Z" fill="#7A5537"/>
<path d="M42.5754 14.3624V12.4864V11.3632V9.48727V8.36409V4.71376V2.79599C42.3544 2.92743 42.0975 3.00509 41.8226 3.00509C41.5478 3.00509 41.2909 2.92743 41.0699 2.79599V4.71376V8.36409V9.48727V11.3632V12.4864V14.3624V15.4855V19.1359V20.8386C41.2909 20.7071 41.5478 20.6295 41.8226 20.6295C42.0975 20.6295 42.3544 20.7071 42.5754 20.8386V19.1359V15.4855V14.3624Z" fill="#F9B835"/>
<path d="M42.5754 2.79003C43.0235 2.52715 43.3282 2.04921 43.3282 1.49957C43.3282 0.66913 42.6591 0 41.8286 0C40.9982 0 40.3291 0.675104 40.3291 1.49957C40.3291 2.05518 40.6338 2.53313 41.0818 2.79003C41.3029 2.92146 41.5597 2.99913 41.8346 2.99913C42.1094 2.99913 42.3484 2.91549 42.5754 2.79003Z" fill="#916B49"/>
<path d="M41.0699 20.8445C40.6218 21.1074 40.3171 21.5854 40.3171 22.135C40.3171 22.9654 40.9922 23.6346 41.8167 23.6346C42.6471 23.6346 43.3162 22.9595 43.3162 22.135C43.3162 21.5794 43.0116 21.1014 42.5635 20.8445C42.3424 20.7131 42.0855 20.6354 41.8107 20.6354C41.5359 20.6354 41.2909 20.7131 41.0699 20.8445Z" fill="#7A5537"/>
<path d="M46.7037 14.3624V12.4864V11.3632V9.48727V8.36409V4.71376V2.79599C46.4826 2.92743 46.2257 3.00509 45.9509 3.00509C45.6761 3.00509 45.4192 2.92743 45.1982 2.79599V4.71376V8.36409V9.48727V11.3632V12.4864V14.3624V15.4855V19.1359V20.8386C45.4192 20.7071 45.6761 20.6295 45.9509 20.6295C46.2257 20.6295 46.4826 20.7071 46.7037 20.8386V19.1359V15.4855V14.3624Z" fill="#F9B835"/>
<path d="M46.7037 2.79003C47.1518 2.52715 47.4565 2.04921 47.4565 1.49957C47.4565 0.66913 46.7873 0 45.9569 0C45.1265 0 44.4573 0.675104 44.4573 1.49957C44.4573 2.05518 44.762 2.53313 45.2101 2.79003C45.4312 2.92146 45.6881 2.99913 45.9629 2.99913C46.2377 2.99913 46.4767 2.91549 46.7037 2.79003Z" fill="#916B49"/>
<path d="M45.1981 20.8445C44.7501 21.1074 44.4454 21.5854 44.4454 22.135C44.4454 22.9654 45.1145 23.6346 45.9449 23.6346C46.7754 23.6346 47.4445 22.9595 47.4445 22.135C47.4445 21.5794 47.1398 21.1014 46.6917 20.8445C46.4707 20.7131 46.2138 20.6354 45.939 20.6354C45.6641 20.6354 45.4192 20.7131 45.1981 20.8445Z" fill="#7A5537"/>
<path d="M57.4038 54.6236V52.7596V52.1621V19.106V11.3632H56.8362V19.1418V54.6116C57.0274 54.6116 57.2126 54.6176 57.4038 54.6236Z" fill="#EAEAEA"/>
<path d="M57.4038 91.9155V90.0515C57.2186 90.0575 57.0274 90.0635 56.8362 90.0635V107.24H57.4038V92.513V91.9155Z" fill="#EAEAEA"/>
<path d="M74.4008 74.1478C74.3889 74.2733 74.371 74.3927 74.3531 74.5182C74.365 74.3927 74.3829 74.2733 74.4008 74.1478Z" fill="#916B49"/>
<path d="M74.132 75.9042C74.1021 76.0596 74.0603 76.2089 74.0304 76.3583C74.0603 76.2089 74.1021 76.0596 74.132 75.9042Z" fill="#916B49"/>
<path d="M74.4546 71.2443C74.4606 71.304 74.4665 71.3638 74.4665 71.4235C74.4665 71.3638 74.4546 71.304 74.4546 71.2443Z" fill="#916B49"/>
<path d="M74.4665 73.2516C74.4606 73.3114 74.4546 73.3711 74.4546 73.4309C74.4546 73.3711 74.4665 73.3114 74.4665 73.2516Z" fill="#916B49"/>
<path d="M74.2873 75.032C74.2634 75.1754 74.2395 75.3128 74.2096 75.4502C74.2335 75.3128 74.2634 75.1754 74.2873 75.032Z" fill="#916B49"/>
<path d="M70.9835 82.9241C70.8341 83.1213 70.6788 83.3184 70.5235 83.5096C70.6788 83.3184 70.8341 83.1213 70.9835 82.9241Z" fill="#916B49"/>
<path d="M74.0244 68.3168C74.0603 68.4662 74.0962 68.6155 74.126 68.7709C74.1021 68.6155 74.0603 68.4662 74.0244 68.3168Z" fill="#916B49"/>
<path d="M74.3531 70.1569C74.371 70.2824 74.3889 70.4019 74.4008 70.5273C74.3829 70.4019 74.365 70.2764 74.3531 70.1569Z" fill="#916B49"/>
<path d="M74.2096 69.2189C74.2335 69.3563 74.2634 69.4997 74.2873 69.6371C74.2634 69.4997 74.2335 69.3623 74.2096 69.2189Z" fill="#916B49"/>
<path d="M73.6959 77.601C73.6421 77.7623 73.5883 77.9236 73.5345 78.0849C73.5883 77.9236 73.6421 77.7623 73.6959 77.601Z" fill="#916B49"/>
<path d="M71.9334 81.5142C71.8139 81.7113 71.6885 81.9025 71.563 82.0877C71.6885 81.8965 71.8139 81.7054 71.9334 81.5142Z" fill="#916B49"/>
<path d="M72.7459 80.0086C72.6563 80.1938 72.5607 80.3791 72.4651 80.5643C72.5607 80.3791 72.6563 80.1998 72.7459 80.0086Z" fill="#916B49"/>
<path d="M73.9348 76.7586C73.893 76.9199 73.8452 77.0752 73.8034 77.2306C73.8452 77.0752 73.893 76.9199 73.9348 76.7586Z" fill="#916B49"/>
<path d="M71.4734 82.2311C71.336 82.4342 71.1926 82.6374 71.0432 82.8345C71.1926 82.6374 71.336 82.4342 71.4734 82.2311Z" fill="#916B49"/>
<path d="M72.3576 80.7734C72.2501 80.9646 72.1425 81.1557 72.029 81.3469C72.1425 81.1557 72.256 80.9646 72.3576 80.7734Z" fill="#916B49"/>
<path d="M73.0984 79.226C73.0208 79.4052 72.9431 79.5785 72.8595 79.7517C72.9431 79.5785 73.0267 79.4052 73.0984 79.226Z" fill="#916B49"/>
<path d="M73.7974 67.4386C73.8452 67.5939 73.893 67.7552 73.9289 67.9106C73.893 67.7552 73.8452 67.5999 73.7974 67.4386Z" fill="#916B49"/>
<path d="M73.4151 78.4254C73.3494 78.5987 73.2836 78.766 73.2119 78.9392C73.2836 78.766 73.3553 78.5987 73.4151 78.4254Z" fill="#916B49"/>
<path d="M69.9022 84.2325C69.7169 84.4356 69.5317 84.6328 69.3406 84.824C69.5317 84.6328 69.7229 84.4356 69.9022 84.2325Z" fill="#916B49"/>
<path d="M69.3406 59.8452C69.5317 60.0363 69.7229 60.2395 69.9081 60.4426C69.7229 60.2395 69.5317 60.0423 69.3406 59.8452Z" fill="#916B49"/>
<path d="M70.5175 61.1595C70.6788 61.3567 70.8341 61.5539 70.9835 61.751C70.8341 61.5479 70.6788 61.3507 70.5175 61.1595Z" fill="#916B49"/>
<path d="M69.938 60.4844C70.1172 60.6816 70.2905 60.8787 70.4578 61.0878C70.2905 60.8787 70.1172 60.6756 69.938 60.4844Z" fill="#916B49"/>
<path d="M68.7192 59.2477C68.9223 59.4329 69.1255 59.6241 69.3226 59.8213C69.1255 59.6301 68.9223 59.4389 68.7192 59.2477Z" fill="#916B49"/>
<path d="M56.8362 90.0635C57.0274 90.0635 57.2126 90.0575 57.4038 90.0515C58.037 90.0276 58.6644 89.9739 59.2797 89.8842C59.6561 89.8305 60.0325 89.7648 60.4029 89.6871C63.5633 89.0299 66.4072 87.5304 68.7073 85.4333C65.5767 88.2951 61.4126 90.0456 56.8362 90.0635Z" fill="#916B49"/>
<path d="M73.5286 66.5783C73.5824 66.7456 73.6421 66.9069 73.6959 67.0742C73.6421 66.9069 73.5824 66.7456 73.5286 66.5783Z" fill="#916B49"/>
<path d="M69.3226 84.8479C69.1255 85.0451 68.9283 85.2362 68.7192 85.4214C68.9223 85.2362 69.1255 85.0451 69.3226 84.8479Z" fill="#916B49"/>
<path d="M70.4578 83.5933C70.2905 83.7964 70.1232 83.9876 69.9499 84.1847C70.1232 83.9876 70.2905 83.7904 70.4578 83.5933Z" fill="#916B49"/>
<path d="M72.8595 64.9055C72.9431 65.0847 73.0267 65.2639 73.1044 65.4491C73.0267 65.2639 72.9371 65.0847 72.8595 64.9055Z" fill="#916B49"/>
<path d="M72.4651 64.1049C72.5607 64.2901 72.6563 64.4753 72.7519 64.6605C72.6563 64.4753 72.5607 64.2901 72.4651 64.1049Z" fill="#916B49"/>
<path d="M73.2119 65.7239C73.2836 65.8972 73.3553 66.0705 73.421 66.2497C73.3553 66.0764 73.2836 65.8972 73.2119 65.7239Z" fill="#916B49"/>
<path d="M72.023 63.3222C72.1366 63.5134 72.2501 63.7046 72.3576 63.9017C72.2501 63.7046 72.1366 63.5134 72.023 63.3222Z" fill="#916B49"/>
<path d="M71.0432 61.8406C71.1866 62.0378 71.336 62.2409 71.4734 62.444C71.336 62.2409 71.1926 62.0378 71.0432 61.8406Z" fill="#916B49"/>
<path d="M71.563 62.5814C71.6885 62.7726 71.8139 62.9638 71.9334 63.1609C71.8139 62.9638 71.6885 62.7726 71.563 62.5814Z" fill="#916B49"/>
<path d="M56.7585 54.6116C56.5972 54.6116 56.4359 54.6176 56.2746 54.6236C55.6413 54.6415 55.014 54.6893 54.3987 54.7729C54.0223 54.8207 53.6459 54.8805 53.2755 54.9581C45.1563 56.5772 39.0326 63.7464 39.0326 72.3435C39.0326 80.9406 45.1504 88.1099 53.2755 89.7289C53.6459 89.8006 54.0223 89.8604 54.3987 89.9141C55.014 89.9978 55.6413 90.0456 56.2746 90.0635C56.4359 90.0695 56.5972 90.0754 56.7585 90.0754C56.7824 90.0754 56.8063 90.0754 56.8362 90.0754V54.6236C56.8123 54.6116 56.7884 54.6116 56.7585 54.6116Z" fill="#916B49"/>
<path d="M56.8362 54.6116C61.4066 54.6296 65.5707 56.38 68.7073 59.2418C66.4131 57.1448 63.5633 55.6452 60.4029 54.988C60.0325 54.9103 59.6561 54.8446 59.2797 54.7909C58.6644 54.7013 58.037 54.6475 57.4038 54.6236C57.2126 54.6176 57.0274 54.6116 56.8362 54.6116Z" fill="#916B49"/>
<path d="M68.7073 85.4334C68.7132 85.4274 68.7132 85.4274 68.7192 85.4214C68.9223 85.2362 69.1255 85.045 69.3226 84.8479C69.3286 84.8419 69.3346 84.8359 69.3406 84.8299C69.5317 84.6388 69.7229 84.4356 69.9021 84.2385C69.9201 84.2206 69.932 84.2026 69.9499 84.1847C70.1232 83.9935 70.2965 83.7964 70.4578 83.5932C70.4817 83.5634 70.4996 83.5335 70.5235 83.5096C70.6788 83.3184 70.8341 83.1213 70.9835 82.9241C71.0074 82.8942 71.0253 82.8644 71.0492 82.8345C71.1926 82.6373 71.3419 82.4342 71.4794 82.2311C71.5092 82.1833 71.5391 82.1355 71.569 82.0877C71.6944 81.8965 71.8199 81.7054 71.9394 81.5142C71.9752 81.4604 72.0051 81.4007 72.035 81.3469C72.1485 81.1557 72.256 80.9705 72.3636 80.7733C72.3994 80.7076 72.4353 80.6359 72.4711 80.5643C72.5667 80.379 72.6623 80.1998 72.7519 80.0086C72.7937 79.925 72.8296 79.8354 72.8654 79.7517C72.949 79.5785 73.0267 79.3992 73.1044 79.226C73.1462 79.1304 73.1821 79.0288 73.2179 78.9332C73.2836 78.766 73.3553 78.5927 73.421 78.4194C73.4628 78.3059 73.4987 78.1924 73.5345 78.0849C73.5883 77.9236 73.6481 77.7623 73.6959 77.601C73.7317 77.4815 73.7675 77.356 73.7974 77.2365C73.8452 77.0812 73.893 76.9199 73.9289 76.7646C73.9647 76.6331 73.9886 76.4957 74.0244 76.3643C74.0603 76.2149 74.0962 76.0656 74.126 75.9102C74.1559 75.7609 74.1798 75.6115 74.2037 75.4562C74.2276 75.3188 74.2574 75.1754 74.2813 75.038C74.3052 74.8707 74.3232 74.6974 74.3471 74.5242C74.365 74.3987 74.3829 74.2792 74.3948 74.1538C74.4187 73.9148 74.4367 73.6758 74.4486 73.4368C74.4546 73.3771 74.4606 73.3173 74.4606 73.2576C74.4785 72.9529 74.4845 72.6542 74.4845 72.3435C74.4845 72.0329 74.4785 71.7341 74.4606 71.4294C74.4546 71.3697 74.4486 71.31 74.4486 71.2502C74.4367 71.0112 74.4187 70.7663 74.3948 70.5333C74.3829 70.4078 74.365 70.2883 74.3471 70.1629C74.3232 69.9896 74.3052 69.8164 74.2813 69.6491C74.2574 69.5057 74.2336 69.3683 74.2037 69.2309C74.1798 69.0815 74.1559 68.9262 74.126 68.7768C74.0962 68.6215 74.0543 68.4721 74.0244 68.3228C73.9946 68.1913 73.9647 68.0539 73.9289 67.9225C73.887 67.7612 73.8392 67.6059 73.7974 67.4505C73.7616 67.331 73.7317 67.2056 73.6959 67.0861C73.6421 66.9188 73.5883 66.7575 73.5286 66.5902C73.4927 66.4827 73.4569 66.3692 73.4151 66.2616C73.3494 66.0824 73.2776 65.9091 73.206 65.7359C73.1701 65.6463 73.1343 65.5507 73.0984 65.4611C73.0207 65.2759 72.9371 65.0966 72.8535 64.9174C72.8176 64.8397 72.7818 64.7561 72.7459 64.6784C72.6563 64.4872 72.5607 64.308 72.4592 64.1228C72.4233 64.0571 72.3934 63.9854 72.3516 63.9197C72.2441 63.7225 72.1306 63.5313 72.0171 63.3402C71.9872 63.2864 71.9573 63.2326 71.9274 63.1789C71.8079 62.9817 71.6825 62.7905 71.557 62.5993C71.5271 62.5515 71.4973 62.5038 71.4674 62.4619C71.33 62.2588 71.1866 62.0557 71.0373 61.8585C71.0134 61.8286 70.9954 61.7988 70.9715 61.7689C70.8222 61.5658 70.6669 61.3686 70.5056 61.1774C70.4876 61.1535 70.4697 61.1297 70.4458 61.0998C70.2785 60.8967 70.1053 60.6935 69.926 60.4964C69.9141 60.4844 69.9021 60.4665 69.8902 60.4545C69.705 60.2514 69.5198 60.0543 69.3226 59.8571C69.3166 59.8511 69.3107 59.8452 69.3047 59.8392C69.1076 59.642 68.9104 59.4509 68.7013 59.2656C68.6953 59.2597 68.6953 59.2597 68.6893 59.2537C65.5528 56.392 61.3887 54.6415 56.8183 54.6236V90.0754C61.4126 90.0456 65.5767 88.2951 68.7073 85.4334Z" fill="#7A5537"/>
<path d="M59.2797 107.24H57.4038H56.8362V107.993V108.739H61.8726L64.3878 107.24H60.4029H59.2797Z" fill="#EAEAEA"/>
<path d="M159.678 102.617C156.296 102.617 153.224 101.92 150.462 100.524C147.752 99.1694 145.323 97.313 143.304 95.0531C141.279 92.7782 139.699 90.1438 138.645 87.2864C137.559 84.4177 137.002 81.3762 137 78.309C136.991 75.164 137.584 72.0462 138.747 69.1243C139.868 66.2692 141.492 63.6385 143.543 61.3576C145.566 59.115 148.01 57.2922 150.737 55.9929C153.527 54.6586 156.585 53.9773 159.678 54.0006C163.01 54.0006 166.071 54.7098 168.858 56.1282C171.585 57.5004 174.017 59.3929 176.017 61.699C178.01 64.0053 179.576 66.6475 180.642 69.5023C182.869 75.3251 182.832 81.7712 180.539 87.5681C179.423 90.4154 177.798 93.0357 175.743 95.3006C173.72 97.5167 171.289 99.3231 168.583 100.621C165.844 101.953 162.876 102.618 159.678 102.617ZM138.371 78.309C138.366 81.2548 138.911 84.1755 139.98 86.9206C141.008 89.6155 142.504 92.1074 144.4 94.2813C146.269 96.4187 148.553 98.1535 151.113 99.3803C153.715 100.643 156.569 101.273 159.678 101.271C162.828 101.271 165.717 100.607 168.344 99.2791C170.91 97.9974 173.192 96.2152 175.058 94.0375C176.919 91.8574 178.38 89.3655 179.374 86.6768C180.905 82.5897 181.289 78.1621 180.486 73.8724C179.683 69.5826 177.724 65.5938 174.819 62.3367C172.922 60.2148 170.63 58.4829 168.07 57.2377C165.489 55.977 162.692 55.3466 159.678 55.3466C156.526 55.3466 153.637 56.0107 151.011 57.3389C148.44 58.6236 146.147 60.4017 144.262 62.572C142.383 64.7455 140.909 67.2391 139.912 69.9339C138.897 72.6098 138.375 75.4472 138.371 78.309V78.309Z" fill="white"/>
<path d="M264.019 102.28V54.3298H279.639C283.476 54.3298 286.822 54.9601 289.676 56.2208C292.531 57.4816 294.906 59.1922 296.802 61.3527C298.697 63.5149 300.112 66.0477 301.049 68.9512C302 71.9538 302.474 75.0873 302.453 78.2371C302.453 81.8843 301.917 85.1824 300.844 88.1314C299.771 91.0804 298.252 93.6002 296.287 95.6908C294.323 97.7839 291.925 99.4047 289.093 100.553C286.261 101.702 283.11 102.276 279.639 102.275L264.019 102.28ZM301.085 78.2371C301.085 74.9515 300.617 71.9351 299.682 69.1877C298.746 66.4403 297.364 64.0652 295.536 62.0623C293.709 60.0595 291.46 58.4948 288.789 57.3682C286.118 56.2416 283.069 55.6791 279.644 55.6807H265.389V100.929H279.639C283.156 100.929 286.25 100.355 288.923 99.2071C291.595 98.0594 293.834 96.4744 295.637 94.452C297.44 92.4256 298.799 90.0277 299.714 87.2584C300.628 84.489 301.084 81.4819 301.083 78.2371H301.085Z" fill="white"/>
<path d="M223.119 101.098C226.772 101.098 229.798 100.423 232.196 99.0718C234.595 97.7209 236.49 95.9651 237.882 93.8046C239.275 91.6424 240.257 89.1885 240.828 86.4427C241.396 83.7103 241.682 80.9267 241.681 78.1359V54.1603H243.052V78.1359C243.063 81.2248 242.729 84.3054 242.058 87.3206C241.395 90.2468 240.287 92.8243 238.735 95.0531C237.184 97.2819 235.14 99.0702 232.604 100.418C230.071 101.773 226.932 102.45 223.187 102.45C219.35 102.45 216.152 101.753 213.595 100.357C211.038 98.9613 208.994 97.1149 207.463 94.8178C205.932 92.5215 204.848 89.9204 204.209 87.0145C203.568 84.0977 203.247 81.1198 203.25 78.1334V54.1603H204.621V78.1359C204.615 80.9718 204.901 83.8007 205.474 86.578C206.043 89.3246 207.037 91.7782 208.454 93.9387C209.872 96.0992 211.768 97.8326 214.141 99.1389C216.517 100.446 219.51 101.099 223.119 101.098Z" fill="white"/>
<path d="M247.948 61.9807H198.357V62.7902H247.948V61.9807Z" fill="white"/>
<path d="M247.948 64.8081C249.286 64.8081 250.371 63.7234 250.371 62.3854C250.371 61.0474 249.286 59.9628 247.948 59.9628C246.61 59.9628 245.526 61.0474 245.526 62.3854C245.526 63.7234 246.61 64.8081 247.948 64.8081Z" fill="#916B49"/>
<path d="M198.357 64.8081C199.695 64.8081 200.78 63.7234 200.78 62.3854C200.78 61.0474 199.695 59.9628 198.357 59.9628C197.019 59.9628 195.935 61.0474 195.935 62.3854C195.935 63.7234 197.019 64.8081 198.357 64.8081Z" fill="#916B49"/>
<path d="M247.948 68.9536H198.357V69.7632H247.948V68.9536Z" fill="white"/>
<path d="M247.948 71.7811C249.286 71.7811 250.371 70.6964 250.371 69.3584C250.371 68.0204 249.286 66.9357 247.948 66.9357C246.61 66.9357 245.526 68.0204 245.526 69.3584C245.526 70.6964 246.61 71.7811 247.948 71.7811Z" fill="#916B49"/>
<path d="M198.357 71.7811C199.695 71.7811 200.78 70.6964 200.78 69.3584C200.78 68.0204 199.695 66.9357 198.357 66.9357C197.019 66.9357 195.935 68.0204 195.935 69.3584C195.935 70.6964 197.019 71.7811 198.357 71.7811Z" fill="#916B49"/>
<path d="M247.948 75.9265H198.357V76.7361H247.948V75.9265Z" fill="white"/>
<path d="M247.948 78.754C249.286 78.754 250.371 77.6693 250.371 76.3313C250.371 74.9933 249.286 73.9087 247.948 73.9087C246.61 73.9087 245.526 74.9933 245.526 76.3313C245.526 77.6693 246.61 78.754 247.948 78.754Z" fill="#916B49"/>
<path d="M198.357 78.754C199.695 78.754 200.78 77.6693 200.78 76.3313C200.78 74.9933 199.695 73.9087 198.357 73.9087C197.019 73.9087 195.935 74.9933 195.935 76.3313C195.935 77.6693 197.019 78.754 198.357 78.754Z" fill="#916B49"/>
</svg>
