<svg width="81" height="81" viewBox="0 0 81 81" fill="none" xmlns="http://www.w3.org/2000/svg">
<path d="M40.72 80.74C62.8225 80.74 80.74 62.8224 80.74 40.72C80.74 18.6176 62.8225 0.700012 40.72 0.700012C18.6176 0.700012 0.700012 18.6176 0.700012 40.72C0.700012 62.8224 18.6176 80.74 40.72 80.74Z" fill="#FFD400"/>
<path d="M40.72 76.69C60.5857 76.69 76.69 60.5857 76.69 40.72C76.69 20.8543 60.5857 4.75 40.72 4.75C20.8543 4.75 4.75 20.8543 4.75 40.72C4.75 60.5857 20.8543 76.69 40.72 76.69Z" fill="#F9B835"/>
<path d="M40.72 74.98C59.6413 74.98 74.98 59.6413 74.98 40.72C74.98 21.7987 59.6413 6.46002 40.72 6.46002C21.7987 6.46002 6.46002 21.7987 6.46002 40.72C6.46002 59.6413 21.7987 74.98 40.72 74.98Z" fill="#FFC200"/>
<path d="M28.99 15.89C28.95 15.82 28.92 15.75 28.88 15.68C28.92 15.75 28.96 15.82 28.99 15.89Z" fill="#FFCE00" stroke="#FFBC00" stroke-miterlimit="10"/>
<path d="M29.01 15.91C29.01 15.9 29 15.89 29 15.88C29 15.9 29 15.9 29.01 15.91Z" fill="#FFCE00" stroke="#FFBC00" stroke-miterlimit="10"/>
<path d="M39.64 56.54H40.47V49.89C40.19 49.88 39.91 49.86 39.64 49.83V56.54Z" fill="#FFCE00" stroke="#FFBC00" stroke-miterlimit="10"/>
<path d="M40.97 56.54H41.8V49.82C41.53 49.85 41.25 49.88 40.97 49.89V56.54Z" fill="#FFCE00" stroke="#FFBC00" stroke-miterlimit="10"/>
<path d="M40.72 62.21C32.02 62.21 24.94 55.13 24.94 46.43C24.94 39.21 29.93 28.81 36.61 25.7C36.85 25.59 37.01 25.34 37.01 25.06V19.2C36.86 19.68 36.42 20.02 35.9 20.02C35.53 20.02 35.2 19.85 34.99 19.58C34.78 19.85 34.45 20.02 34.08 20.02C33.71 20.02 33.38 19.85 33.17 19.58C32.96 19.85 32.63 20.02 32.26 20.02C31.62 20.02 31.1 19.5 31.1 18.86C31.1 18.55 31.22 18.26 31.43 18.05V18.02C30.25 17.9 29.19 17.21 28.59 16.17L28.16 15.42H28.26C28.18 15.16 28.13 14.9 28.11 14.63V14.59H28.07L28.09 14.34L28.07 14.09H28.11V14.05C28.13 13.78 28.18 13.52 28.26 13.26H28.16L28.59 12.51C29.19 11.47 30.25 10.78 31.43 10.66V10.53C31.22 10.32 31.1 10.02 31.1 9.72003C31.1 9.08003 31.62 8.56003 32.26 8.56003C32.63 8.56003 32.96 8.73003 33.17 9.00003C33.38 8.73003 33.71 8.56003 34.08 8.56003C34.45 8.56003 34.78 8.73003 34.99 9.00003C35.2 8.73003 35.53 8.56003 35.9 8.56003C36.54 8.56003 37.06 9.08003 37.06 9.72003C37.06 10.03 36.94 10.32 36.73 10.53V10.64H40.71C42.76 10.64 44.43 12.3 44.43 14.35V25.06C44.43 25.34 44.59 25.59 44.83 25.7C51.51 28.81 56.5 39.22 56.5 46.43C56.5 55.13 49.42 62.21 40.72 62.21ZM41.8 56.7V49.32L42.21 49.24C46.14 48.51 48.99 45.08 48.99 41.08C48.99 37.08 46.14 33.64 42.21 32.92L41.97 32.88L41.74 32.85C41.48 32.82 41.22 32.8 40.96 32.79L40.74 32.78L40.49 32.79C40.23 32.8 39.96 32.81 39.71 32.84L39.48 32.87L39.24 32.91C35.27 33.61 32.39 37.05 32.39 41.09C32.39 45.13 35.27 48.56 39.24 49.27L39.65 49.34V56.71H41.8V56.7ZM36.73 18.05C36.86 18.18 36.96 18.35 37.01 18.52V18.03H36.73V18.05ZM34.99 18.14C35.02 18.11 35.04 18.08 35.07 18.05V18.03H34.91V18.05C34.93 18.08 34.96 18.11 34.99 18.14ZM33.16 18.14C33.19 18.11 33.21 18.08 33.24 18.05V18.03H33.08V18.05C33.11 18.08 33.13 18.11 33.16 18.14ZM35.07 10.64V10.53C35.04 10.5 35.01 10.47 34.99 10.44C34.96 10.47 34.94 10.5 34.91 10.53V10.64H35.07ZM33.24 10.64V10.53C33.21 10.5 33.18 10.47 33.16 10.44C33.13 10.47 33.11 10.5 33.08 10.53V10.64H33.24Z" fill="#FFCE00"/>
<path d="M35.9 9.05002C36.27 9.05002 36.56 9.35002 36.56 9.71002C36.56 9.96002 36.43 10.17 36.23 10.28V11.13H40.71C40.71 11.13 40.71 11.13 40.72 11.13C40.72 11.13 40.72 11.13 40.73 11.13C42.5 11.13 43.94 12.57 43.94 14.34V25.05C43.94 25.52 44.21 25.95 44.63 26.14C51.17 29.21 56 39.34 56 46.44C56 54.88 49.16 61.72 40.72 61.72C32.28 61.72 25.44 54.88 25.44 46.44C25.44 39.35 30.27 29.21 36.82 26.16C37.24 25.96 37.51 25.53 37.51 25.07V17.54H36.23V18.29C36.43 18.41 36.56 18.62 36.56 18.86C36.56 19.23 36.26 19.52 35.9 19.52C35.53 19.52 35.24 19.22 35.24 18.86C35.24 18.61 35.37 18.4 35.57 18.29V17.54H34.41V18.29C34.61 18.41 34.74 18.62 34.74 18.86C34.74 19.23 34.44 19.52 34.08 19.52C33.71 19.52 33.42 19.22 33.42 18.86C33.42 18.61 33.55 18.4 33.75 18.29V17.54H32.59V18.29C32.79 18.41 32.92 18.62 32.92 18.86C32.92 19.23 32.62 19.52 32.26 19.52C31.89 19.52 31.6 19.22 31.6 18.86C31.6 18.61 31.73 18.4 31.93 18.29V17.54H31.8C30.61 17.54 29.58 16.89 29.03 15.92H31.93V15.42H28.8C28.83 15.51 28.87 15.59 28.9 15.67C28.75 15.34 28.65 14.97 28.62 14.59H31.93V14.09H28.62C28.65 13.71 28.75 13.34 28.9 13.01C28.86 13.09 28.83 13.18 28.8 13.26H31.93V12.76H29.03C29.58 11.8 30.62 11.14 31.81 11.14H31.94V10.29C31.74 10.17 31.61 9.96002 31.61 9.72002C31.61 9.35002 31.91 9.06002 32.27 9.06002C32.64 9.06002 32.93 9.36002 32.93 9.72002C32.93 9.97002 32.8 10.18 32.6 10.29V11.14H33.76V10.29C33.56 10.17 33.43 9.96002 33.43 9.72002C33.43 9.35002 33.73 9.06002 34.09 9.06002C34.46 9.06002 34.75 9.36002 34.75 9.72002C34.75 9.97002 34.62 10.18 34.42 10.29V11.14H35.58V10.29C35.38 10.17 35.25 9.96002 35.25 9.72002C35.24 9.35002 35.53 9.05002 35.9 9.05002ZM36.23 13.26H41.8V17.34V32.35C41.53 32.32 41.25 32.29 40.97 32.28V17.52V14.09H36.23V14.59H40.47V17.54V32.29C40.19 32.3 39.91 32.32 39.64 32.35V17.53V15.41H36.23V15.91H39.14V17.53V32.41C35.01 33.14 31.88 36.74 31.88 41.08C31.88 45.42 35.02 49.02 39.14 49.75V56.53H37.19C37.01 56.53 36.86 56.68 36.86 56.86C36.86 57.04 37.01 57.19 37.19 57.19H44.17C44.35 57.19 44.5 57.04 44.5 56.86C44.5 56.68 44.35 56.53 44.17 56.53H42.29V49.73C46.38 48.97 49.48 45.39 49.48 41.07C49.48 36.76 46.38 33.17 42.29 32.41V17.1V12.75H36.22V13.26H36.23ZM34.41 13.26H35.57V12.76H34.41V13.26ZM32.58 13.26H33.74V12.76H32.58V13.26ZM34.41 14.58H35.57V14.08H34.41V14.58ZM32.58 14.58H33.74V14.08H32.58V14.58ZM34.41 15.91H35.57V15.41H34.41V15.91ZM32.58 15.91H33.74V15.41H32.58V15.91ZM35.9 8.05002C35.56 8.05002 35.25 8.15002 34.99 8.32002C34.73 8.15002 34.41 8.05002 34.08 8.05002C33.75 8.05002 33.43 8.15002 33.17 8.32002C32.91 8.15002 32.59 8.05002 32.26 8.05002C31.34 8.05002 30.6 8.80002 30.6 9.71002C30.6 9.91002 30.64 10.1 30.7 10.28C29.64 10.57 28.72 11.27 28.16 12.25L27.31 13.75H27.56L27.6 14.33L27.56 14.91H27.32L28.17 16.41C28.72 17.38 29.63 18.08 30.68 18.37C30.63 18.52 30.61 18.69 30.61 18.85C30.61 19.77 31.36 20.51 32.27 20.51C32.61 20.51 32.92 20.41 33.18 20.24C33.44 20.41 33.76 20.51 34.09 20.51C34.42 20.51 34.74 20.41 35 20.24C35.26 20.41 35.58 20.51 35.91 20.51C36.13 20.51 36.33 20.47 36.52 20.39V25.05C36.52 25.13 36.48 25.21 36.41 25.24C29.36 28.53 24.45 39.04 24.45 46.43C24.45 55.41 31.75 62.71 40.73 62.71C49.71 62.71 57.01 55.41 57.01 46.43C57.01 39.05 52.1 28.53 45.05 25.24C44.98 25.21 44.94 25.13 44.94 25.05V14.35C44.94 12.03 43.05 10.14 40.73 10.14H40.72H37.52C37.56 10 37.58 9.86002 37.58 9.72002C37.57 8.80002 36.82 8.05002 35.9 8.05002ZM39.54 33.36L39.76 33.33C40 33.3 40.25 33.28 40.5 33.28L40.72 33.27L40.94 33.28C41.19 33.29 41.43 33.31 41.68 33.34L41.91 33.37L42.13 33.41C45.82 34.09 48.51 37.32 48.51 41.08C48.51 44.84 45.83 48.07 42.13 48.75L41.31 48.9V49.73V56.19H40.15V49.74V48.9L39.32 48.75C35.59 48.09 32.88 44.86 32.88 41.07C32.88 37.28 35.59 34.05 39.32 33.39L39.54 33.36Z" fill="#FFBC00"/>
<path d="M40.69 48.93C45.0254 48.93 48.54 45.4154 48.54 41.08C48.54 36.7446 45.0254 33.23 40.69 33.23C36.3545 33.23 32.84 36.7446 32.84 41.08C32.84 45.4154 36.3545 48.93 40.69 48.93Z" fill="#FFCE00"/>
<path d="M48.33 55.04C49.8875 55.04 51.15 53.7775 51.15 52.22C51.15 50.6626 49.8875 49.4 48.33 49.4C46.7726 49.4 45.51 50.6626 45.51 52.22C45.51 53.7775 46.7726 55.04 48.33 55.04Z" fill="#FFBC00" stroke="#FFCE00" stroke-miterlimit="10"/>
<path d="M32.88 55.04C34.4374 55.04 35.7 53.7775 35.7 52.22C35.7 50.6626 34.4374 49.4 32.88 49.4C31.3226 49.4 30.06 50.6626 30.06 52.22C30.06 53.7775 31.3226 55.04 32.88 55.04Z" fill="#FFBC00" stroke="#FFCE00" stroke-miterlimit="10"/>
<path d="M29.6971 72.1669C28.602 72.1669 27.7096 71.8114 27.0198 71.1003C26.3301 70.3857 25.9852 69.4559 25.9852 68.311C25.9852 67.1022 26.3354 66.1244 27.0358 65.3778C27.7362 64.6311 28.6642 64.2578 29.8197 64.2578C30.9113 64.2578 31.793 64.6151 32.465 65.3298C33.1406 66.0444 33.4783 66.9866 33.4783 68.1564C33.4783 69.3581 33.1281 70.327 32.4277 71.063C31.7308 71.799 30.8206 72.1669 29.6971 72.1669ZM29.7717 65.7404C29.1673 65.7404 28.6873 65.968 28.3318 66.4231C27.9762 66.8746 27.7985 67.4737 27.7985 68.2204C27.7985 68.9777 27.9762 69.5768 28.3318 70.0177C28.6873 70.4585 29.1531 70.679 29.7291 70.679C30.3228 70.679 30.7939 70.4657 31.1424 70.039C31.4908 69.6088 31.665 69.0132 31.665 68.2524C31.665 67.4595 31.4961 66.8426 31.1584 66.4018C30.8206 65.9609 30.3584 65.7404 29.7717 65.7404ZM44.0061 68.7217C44.0061 71.0185 42.9359 72.1669 40.7955 72.1669C38.7191 72.1669 37.6809 71.0452 37.6809 68.8017V64.3858H39.4088V68.823C39.4088 70.0603 39.8924 70.679 40.8595 70.679C41.8088 70.679 42.2834 70.0817 42.2834 68.887V64.3858H44.0061V68.7217ZM48.694 72.0336V64.3858H51.4032C54.1196 64.3858 55.4778 65.6284 55.4778 68.1137C55.4778 69.3048 55.1062 70.2559 54.3631 70.967C53.6236 71.6781 52.637 72.0336 51.4032 72.0336H48.694ZM50.4166 65.7884V70.6363H51.2699C52.0165 70.6363 52.6014 70.4123 53.0245 69.9643C53.4512 69.5163 53.6645 68.9066 53.6645 68.135C53.6645 67.4062 53.4529 66.8337 53.0298 66.4178C52.6103 65.9982 52.0201 65.7884 51.2592 65.7884H50.4166Z" fill="#FFD400"/>
</svg>
