<svg id="Layer_1" data-name="Layer 1" xmlns="http://www.w3.org/2000/svg" xmlns:xlink="http://www.w3.org/1999/xlink" viewBox="0 0 1024 1024"><defs><style>.cls-1{fill:none;}.cls-2{fill:#424242;}.cls-3{clip-path:url(#clip-path);}.cls-4{fill:#383838;}.cls-5{clip-path:url(#clip-path-2);}.cls-6{fill:#ffce00;}.cls-7{fill:#f9b835;}.cls-12,.cls-8{fill:#fff;}.cls-8{stroke:#ffb600;}.cls-11,.cls-8{stroke-miterlimit:10;}.cls-9{fill:#916b49;}.cls-10{fill:#7a5537;}.cls-11,.cls-13{fill:#eaeaea;}.cls-11{stroke:#ff9700;}</style><clipPath id="clip-path"><path class="cls-1" d="M271.81,156l601.76,375c49,30.52,48.17,88.56-1.63,118.26l-601.75,359c-63.74,38-156,2.76-156-59.62v-734C114.21,151.53,208.38,116.49,271.81,156Z"/></clipPath><clipPath id="clip-path-2"><path class="cls-1" d="M909.79,0H114.21V948.66c0,62.38,92.24,97.64,156,59.62l601.75-359c28.24-16.84,40.7-42.79,37.29-67.66h.56Z"/></clipPath></defs><title>Oud</title><path class="cls-2" d="M271.81,156l601.76,375c49,30.52,48.17,88.56-1.63,118.26l-601.75,359c-63.74,38-156,2.76-156-59.62v-734C114.21,151.53,208.38,116.49,271.81,156Z"/><g class="cls-3"><polygon class="cls-4" points="75.55 737.58 68.57 602.09 435.18 317.32 811.22 801.42 523.13 1024 136.83 1024 90.87 990.86 75.55 737.58"/></g><g class="cls-5"><path class="cls-6" d="M605.81,294.73A20.57,20.57,0,0,1,594,276v-183a54.76,54.76,0,0,0-54.76-54.76H386.66a54.57,54.57,0,0,0-54.58,54.58h0a54.58,54.58,0,0,0,54.58,54.58h97.86V276a20.57,20.57,0,0,1-11.77,18.69C360.86,346.9,278.32,520,278.32,641.16c0,144.12,116.84,261,261,261s261-116.83,261-261C800.24,520,717.7,346.9,605.81,294.73Z"/><path class="cls-7" d="M800.24,641.16c0-121.13-82.54-294.26-194.43-346.43A20.57,20.57,0,0,1,594,276v-183a54.76,54.76,0,0,0-54.76-54.76h0V902.11C683.4,902.11,800.24,785.28,800.24,641.16Z"/><circle class="cls-8" cx="538.71" cy="549.75" r="150.42"/><circle class="cls-9" cx="538.71" cy="549.75" r="134.07"/><circle class="cls-10" cx="669.27" cy="739.9" r="48.25"/><path class="cls-11" d="M538.71,700.17a150.42,150.42,0,0,0,0-300.84"/><circle class="cls-9" cx="405.32" cy="739.9" r="48.25"/><rect class="cls-12" x="473.43" y="813.69" width="130.55" height="11.35" rx="2"/><path class="cls-12" d="M332.29,88.61c-.11,1.41-.21,2.82-.21,4.26h0c0,1.43.1,2.85.21,4.25H535.05V819.37h8.51V88.61Z"/><path class="cls-12" d="M335.34,111.32a54.64,54.64,0,0,0,3.9,8.51h173.1V819.37h8.52V111.32Z"/><path class="cls-13" d="M339.24,65.91a54.64,54.64,0,0,0-3.9,8.51H557.75v745h8.52V65.91Z"/><path class="cls-12" d="M339.24,65.91a54.64,54.64,0,0,0-3.9,8.51H539.28V65.91Z"/><rect class="cls-7" x="388.84" y="14" width="11.35" height="156.1"/><circle class="cls-9" cx="394.52" cy="14" r="11.35"/><circle class="cls-10" cx="394.52" cy="170.1" r="11.35"/><rect class="cls-7" x="420.06" y="14" width="11.35" height="156.1"/><circle class="cls-9" cx="425.74" cy="14" r="11.35"/><circle class="cls-10" cx="425.74" cy="170.1" r="11.35"/><rect class="cls-7" x="451.28" y="14" width="11.35" height="156.1"/><circle class="cls-9" cx="456.96" cy="14" r="11.35"/><circle class="cls-10" cx="456.96" cy="170.1" r="11.35"/><polygon class="cls-13" points="539.28 88.61 539.28 147.45 539.28 819.37 543.56 819.37 543.56 147.22 543.56 88.61 539.28 88.61"/><circle class="cls-9" cx="538.71" cy="549.75" r="134.07"/><path class="cls-10" d="M539.28,415.69V683.8a134.06,134.06,0,0,0,0-268.11Z"/><path class="cls-13" d="M598.31,813.69h-59v11.36h59a5.68,5.68,0,1,0,0-11.36Z"/></g><rect class="cls-1" width="1024" height="1024"/></svg>