<svg xmlns="http://www.w3.org/2000/svg" xmlns:xlink="http://www.w3.org/1999/xlink" viewBox="0 0 500 500"><defs><style>.cls-1{fill:none;}.cls-2{fill:#424242;}.cls-3{fill:#916b49;}.cls-4{clip-path:url(#clip-path);}.cls-5{fill:#ffce00;}</style><clipPath id="clip-path"><path class="cls-1" d="M394.81,27.44H97V420.75c0,23.35,34.53,36.55,58.39,22.32L380.65,308.7c10.57-6.31,15.23-16,14-25.33h.21Z"/></clipPath></defs><title>profile</title><g id="Layer_2" data-name="Layer 2"><path class="cls-2" d="M500,500H0V0H500Z"/></g><g id="Layer_4" data-name="Layer 4"><path class="cls-3" d="M156,124.07,381.25,264.43c18.34,11.42,18,33.14-.61,44.26L155.41,443.06c-23.86,14.22-58.39,1-58.39-22.31V146C97,122.39,132.27,109.28,156,124.07Z"/><rect class="cls-1" x="54.28" y="65.68" width="383.28" height="383.28"/><g class="cls-4"><path class="cls-5" d="M458.83,328.84a64.2,64.2,0,0,0-11.47-4.47,70.44,70.44,0,0,0-9-17.61c-11.64-15.63-84.95-38.83-88.17-41.45s-13.47-16.49-13.47-16.49H336v-15.2a86.12,86.12,0,0,0,10-15.68c1.46-3,2.71-9.48,3.78-17.71,12.08-5.54,13.54-24.85,14-35.67.35-7.47-4.83-5.35-8.59-2.88,1.23-5.47,2.37-11.49,3.26-17.91.23-1.66.39-3.29.5-4.9a153.9,153.9,0,0,0,1.39-28.46l4.38,1.77a69.39,69.39,0,0,0-14.26-23.65q2.09-1.31,4.18-2.6a48.06,48.06,0,0,0-22.4-8.11,64.61,64.61,0,0,0-23.45-11.07c-12.94-3.31-26.44-3.5-39.79-3.67q.78,3.63,1.58,7.26a49.51,49.51,0,0,0-18.84-7.91L254,71.61l-8.22-1.28q.85,4.58,1.7,9.17l-4.95-1.87q.19,8.66.4,17.3l-3.59-2.73c2.82,17.44-5,35.16-3,52.71a45.65,45.65,0,0,0,2.5,10.5c.41,1.71.92,3.65,1.51,5.72-3.64-2.19-8-3.47-7.71,3.43.51,10.83,2,30.15,14.06,35.68,1.07,8.23,2.33,14.68,3.79,17.7a85.39,85.39,0,0,0,9.7,15.32v15.56h-.7S249.23,262.7,246,265.31s-76.53,25.82-88.17,41.45c-4.18,5.61-7.65,13.22-10.55,22.08,0,0-6.81,31.89-8.18,45.24-1.3,12.67-8.06,74.57-3.08,79.55s159.8,18.08,224.74-4,84.73-21.43,88.15-59.75S481.56,340.53,458.83,328.84Z"/></g></g></svg>